<svg xmlns="http://www.w3.org/2000/svg" viewBox="0 0 1439.56 432.85"><path d="M1227,102.18a1.52,1.52,0,0,0,1.43-1,1.44,1.44,0,0,0,.09-.51,1.39,1.39,0,0,0-.09-.5,1.51,1.51,0,1,0-1.43,2Z" style="fill:none"/><path d="M76,260.58a1.52,1.52,0,1,0,0-3,1.44,1.44,0,0,0-.65.15,1.55,1.55,0,0,0-.72.71,1.6,1.6,0,0,0-.15.66A1.52,1.52,0,0,0,76,260.58Z" style="fill:none"/><path d="M71.15,362.43a1.63,1.63,0,0,0-.31,0,1.52,1.52,0,1,0,1.51,1.52A1.47,1.47,0,0,0,72,363,1.49,1.49,0,0,0,71.15,362.43Z" style="fill:none"/><path d="M660.17,335.19a1.59,1.59,0,0,0,.65-.15,1.52,1.52,0,0,0,.42-2.44,1.52,1.52,0,1,0-1.07,2.59Z" style="fill:none"/><path d="M563,351.74a1.59,1.59,0,0,0,.65.15,1.52,1.52,0,1,0-1.52-1.52,1.59,1.59,0,0,0,.15.65A1.57,1.57,0,0,0,563,351.74Z" style="fill:none"/><path d="M358.33,238.46a1.53,1.53,0,0,0,.93.33h0a1.52,1.52,0,0,0,0-3h0a1.49,1.49,0,0,0-1.48,1.83A1.47,1.47,0,0,0,358.33,238.46Z" style="fill:none"/><path d="M453.38,395.77h0a1.53,1.53,0,0,0,1.52-1.51,1.67,1.67,0,0,0-.32-.95,1.45,1.45,0,0,0-.86-.57,1.27,1.27,0,0,0-.34-.05h0a1.53,1.53,0,0,0-1.48,1.56h0A1.52,1.52,0,0,0,453.38,395.77Z" style="fill:none"/><path d="M156.24,250.4a1.51,1.51,0,0,0-1.07-.45,1.35,1.35,0,0,0-1.08.45,1.48,1.48,0,0,0-.44,1.07,1.51,1.51,0,0,0,2.59,1.07,1.48,1.48,0,0,0,.35-.54,1.6,1.6,0,0,0,.09-.53,1.62,1.62,0,0,0-.08-.49A1.53,1.53,0,0,0,156.24,250.4Z" style="fill:none"/><path d="M1348,298.5a1.52,1.52,0,1,0-1.07,2.59,1.53,1.53,0,0,0,1.42-1,1.44,1.44,0,0,0,.09-.51,1.52,1.52,0,0,0-.09-.51A1.43,1.43,0,0,0,1348,298.5Z" style="fill:none"/><path d="M91.12,162.89a.28.28,0,0,0,0,.09,1.54,1.54,0,0,0,.31.92,1.53,1.53,0,1,0-.3-1Z" style="fill:none"/><path d="M83.9,3.9a1.55,1.55,0,0,0,.65.15A1.52,1.52,0,1,0,83,2.53a1.55,1.55,0,0,0,.15.65A1.48,1.48,0,0,0,83.9,3.9Z" style="fill:none"/><path d="M201.71,234.06a1.52,1.52,0,1,0-1.48-1.83,1.55,1.55,0,0,0,0,.31,1.41,1.41,0,0,0,.19.7A1.51,1.51,0,0,0,201.71,234.06Z" style="fill:none"/><path d="M259.72,237a1.48,1.48,0,0,0,.86.26,1.52,1.52,0,1,0-1.52-1.52,1.52,1.52,0,0,0,.66,1.26Z" style="fill:none"/><path d="M155.16,208.76a1.52,1.52,0,0,0,0,3l.25,0a1.53,1.53,0,0,0,.91-.52,1.55,1.55,0,0,0,.36-1A1.52,1.52,0,0,0,155.16,208.76Z" style="fill:none"/><path d="M393.26,345.53a1.37,1.37,0,0,0,.64.15,1.52,1.52,0,0,0,1.52-1.51,1.52,1.52,0,1,0-3,0,1.45,1.45,0,0,0,.15.66A1.5,1.5,0,0,0,393.26,345.53Z" style="fill:none"/><path d="M1263.47,194.58a1.52,1.52,0,1,0,1.43,2,1.43,1.43,0,0,0,.09-.5,1.44,1.44,0,0,0-.09-.51A1.52,1.52,0,0,0,1263.47,194.58Z" style="fill:none"/><path d="M1368.07,100a1.39,1.39,0,0,0,.65.16,1.52,1.52,0,1,0-1.52-1.52,1.59,1.59,0,0,0,.15.65A1.5,1.5,0,0,0,1368.07,100Z" style="fill:none"/><path d="M1310.34,209.71a1.59,1.59,0,0,0-.65-.15,1.52,1.52,0,1,0,1.52,1.52,1.45,1.45,0,0,0-.16-.65A1.55,1.55,0,0,0,1310.34,209.71Z" style="fill:none"/><path d="M1227,117.8a1.52,1.52,0,0,0,1.43-1,1.44,1.44,0,0,0,.09-.51,1.39,1.39,0,0,0-.09-.5,1.51,1.51,0,1,0-1.43,2Z" style="fill:none"/><path d="M1284.39,253.79a1.52,1.52,0,0,0,0-3,1.57,1.57,0,0,0-1.08.45,1.75,1.75,0,0,0-.29.42,1.59,1.59,0,0,0-.15.65A1.52,1.52,0,0,0,1284.39,253.79Z" style="fill:none"/><path d="M1363.52,202h0a1.54,1.54,0,0,0-1.07.44,1.51,1.51,0,0,0-.45,1.08,1.53,1.53,0,0,0,1.52,1.52h0a1.45,1.45,0,0,0,.65-.16,1.36,1.36,0,0,0,.43-.29,1.5,1.5,0,0,0,.29-.42,1.44,1.44,0,0,0,.15-.65,1.5,1.5,0,0,0-1.52-1.52Z" style="fill:none"/><path d="M733.6,352.48a1.51,1.51,0,0,0,1.07.45,1.54,1.54,0,0,0,1.52-1.52,1.52,1.52,0,0,0-1.52-1.52,1.5,1.5,0,0,0-1.42,1,1.44,1.44,0,0,0-.09.51,1.43,1.43,0,0,0,.09.5A1.47,1.47,0,0,0,733.6,352.48Z" style="fill:none"/><path d="M1237.84,228.45h0a1.52,1.52,0,0,0-1.48,1.55h0a1.55,1.55,0,0,0,.44,1.08,1.52,1.52,0,0,0,2.5-.57,1.45,1.45,0,0,0,.1-.51,2,2,0,0,0-.09-.5A1.51,1.51,0,0,0,1237.84,228.45Z" style="fill:none"/><path d="M1008.13,326h0a1.53,1.53,0,0,0-1.06.47,1.5,1.5,0,0,0-.42,1.08v0a1.52,1.52,0,0,0,1.51,1.51,1.48,1.48,0,0,0,1.43-1,1.45,1.45,0,0,0,.1-.51,1.65,1.65,0,0,0-.1-.5A1.49,1.49,0,0,0,1008.13,326Z" style="fill:none"/><path d="M988.15,306.83h0a1.5,1.5,0,0,0,1.07-.44,1.63,1.63,0,0,0,.45-1.07,1.93,1.93,0,0,0-.09-.5,1.5,1.5,0,0,0-1.43-1.06h0a1.52,1.52,0,0,0-1.48,1.55h0A1.52,1.52,0,0,0,988.15,306.83Z" style="fill:none"/><path d="M1143.67,300.64a1.54,1.54,0,0,0,.42.3,1.59,1.59,0,0,0,.65.15h0a1.47,1.47,0,0,0,1.07-.45,1.49,1.49,0,0,0,.45-1.07,1.52,1.52,0,1,0-3,0,1.59,1.59,0,0,0,.15.65A1.4,1.4,0,0,0,1143.67,300.64Z" style="fill:none"/><path d="M1284.39,212.6a1.52,1.52,0,1,0-1.43-2,1.59,1.59,0,0,0-.09.5,1.71,1.71,0,0,0,.09.51A1.52,1.52,0,0,0,1284.39,212.6Z" style="fill:none"/><path d="M1237.84,276.41a1.53,1.53,0,0,0,1.52-1.52,1.54,1.54,0,0,0-1.52-1.57h0a1.52,1.52,0,0,0-1.4,1.06,1.64,1.64,0,0,0-.08.5h0a1.7,1.7,0,0,0,.09.5A1.53,1.53,0,0,0,1237.84,276.41Z" style="fill:none"/><path d="M1179,228.3a1.53,1.53,0,0,0,1.52-1.52,1.39,1.39,0,0,0-.16-.65,1.5,1.5,0,0,0-.71-.72,1.59,1.59,0,0,0-.65-.15,1.52,1.52,0,1,0,0,3Z" style="fill:none"/><path d="M201.71,140.87a1.52,1.52,0,1,0-1.42-2,1.33,1.33,0,0,0,0,1A1.5,1.5,0,0,0,201.71,140.87Z" style="fill:none"/><path d="M176.08,268a1.52,1.52,0,1,0,0-3,1.5,1.5,0,0,0-1.42,1,1.71,1.71,0,0,0-.1.5,1.45,1.45,0,0,0,.1.51A1.53,1.53,0,0,0,176.08,268Z" style="fill:none"/><path d="M506.05,426.85a1.52,1.52,0,0,0,0,3,1.45,1.45,0,0,0,.65-.16,1.53,1.53,0,0,0,.71-.71,1.44,1.44,0,0,0,.15-.65A1.5,1.5,0,0,0,506.05,426.85Z" style="fill:none"/><path d="M677.82,391.92a1.51,1.51,0,0,0-1.34,2.22,1.57,1.57,0,0,0,.73.69,1.55,1.55,0,0,0,.61.13,1.52,1.52,0,0,0,1.51-1.52,1.52,1.52,0,0,0-1.51-1.52Z" style="fill:none"/><path d="M1323.86,4.05a1.43,1.43,0,0,0,.58-.12,1.55,1.55,0,0,0,.75-.68,1.6,1.6,0,0,0,.18-.72A1.52,1.52,0,0,0,1323.86,1h0a1.52,1.52,0,0,0,0,3Z" style="fill:none"/><path d="M211.44,363a1.47,1.47,0,0,0,1.07.45,1.52,1.52,0,1,0-1.42-2,1.44,1.44,0,0,0-.09.51,1.31,1.31,0,0,0,.09.51A1.43,1.43,0,0,0,211.44,363Z" style="fill:none"/><path d="M211.44,347.34a1.47,1.47,0,0,0,1.07.45,1.52,1.52,0,1,0-1.42-2,1.44,1.44,0,0,0-.09.51,1.31,1.31,0,0,0,.09.51A1.51,1.51,0,0,0,211.44,347.34Z" style="fill:none"/><path d="M325.48,382.56h0a1.52,1.52,0,0,0-1.52,1.52,1.42,1.42,0,0,0,.16.65,1.55,1.55,0,0,0,.71.72,1.59,1.59,0,0,0,.65.15h0a1.54,1.54,0,0,0,1.52-1.52,1.51,1.51,0,0,0-.45-1.08A1.5,1.5,0,0,0,325.48,382.56Z" style="fill:none"/><path d="M423,426.85a1.52,1.52,0,1,0,1.42,2,1.35,1.35,0,0,0,.1-.5,1.45,1.45,0,0,0-.1-.51A1.49,1.49,0,0,0,423,426.85Z" style="fill:none"/><path d="M1171.75,300.94a1.59,1.59,0,0,0,.65.15,1.52,1.52,0,0,0,1.51-1.52,1.52,1.52,0,0,0-1.51-1.52,1.52,1.52,0,0,0-1.52,1.52,1.59,1.59,0,0,0,.15.65A1.57,1.57,0,0,0,1171.75,300.94Z" style="fill:none"/><path d="M129.19,252.87a1.52,1.52,0,0,0,.68.17h0a1.52,1.52,0,0,0,1.48-1.56h0a1.46,1.46,0,0,0-.44-1.07,1.51,1.51,0,0,0-1.07-.45h0a1.52,1.52,0,0,0-1.52,1.52,1.77,1.77,0,0,0,.14.66A1.57,1.57,0,0,0,129.19,252.87Z" style="fill:none"/><path d="M1238,321.52a1.52,1.52,0,0,0,0,3,1.54,1.54,0,0,0,1.07-.44,1.66,1.66,0,0,0,.25-.34,1.6,1.6,0,0,0,.19-.74,2.64,2.64,0,0,0,0-.28A1.53,1.53,0,0,0,1238,321.52Z" style="fill:none"/><path d="M1113,364h0a1.47,1.47,0,0,0-1.06.47,1.43,1.43,0,0,0-.35.59,1.35,1.35,0,0,0-.07.49h0a1.44,1.44,0,0,0,.09.51,1.47,1.47,0,0,0,.35.57,1.54,1.54,0,0,0,1.07.44,1.54,1.54,0,0,0,0-3.08Z" style="fill:none"/><path d="M1027.35,344.84h0a1.51,1.51,0,0,0-1.48,1.55h0a1.5,1.5,0,0,0,.44,1.08,1.54,1.54,0,0,0,1.07.44,1.52,1.52,0,0,0,1.43-1,1.44,1.44,0,0,0,.09-.51,1.64,1.64,0,0,0-.09-.5A1.5,1.5,0,0,0,1027.35,344.84Z" style="fill:none"/><path d="M112,346.78h98a2.53,2.53,0,1,0,0-1H111.61L67.25,390.15H0v1H67.67Zm99.06-1a1.52,1.52,0,1,1,1.42,2,1.47,1.47,0,0,1-1.07-.45,1.51,1.51,0,0,1-.35-.56,1.31,1.31,0,0,1-.09-.51A1.44,1.44,0,0,1,211.09,345.76Z" style="fill:#c5c9e0"/><path d="M147.58,285.94,71.93,361.65a2.39,2.39,0,0,0-1.1-.27,2.54,2.54,0,1,0,2.54,2.54,2.52,2.52,0,0,0-.63-1.65L148,287H309.87l47.74-47.77a2.55,2.55,0,0,0,1.65.62h0a2.52,2.52,0,0,0,2.52-2.54h0a2.53,2.53,0,0,0-2.52-2.52h0a2.54,2.54,0,0,0-2.53,2.54,2.5,2.5,0,0,0,.26,1.09l-47.54,47.57ZM70.84,365.43a1.52,1.52,0,1,1,0-3,1.63,1.63,0,0,1,.31,0A1.49,1.49,0,0,1,72,363a1.47,1.47,0,0,1,.33.94A1.52,1.52,0,0,1,70.84,365.43ZM359.26,235.75h0a1.52,1.52,0,0,1,0,3h0a1.53,1.53,0,0,1-.93-.33,1.47,1.47,0,0,1-.55-.88,1.49,1.49,0,0,1,1.48-1.83Z" style="fill:#c5c9e0"/><path d="M144,267H173.6a2.53,2.53,0,0,0,5-.5,2.53,2.53,0,0,0-5-.51h-30L75.35,334.22H0v1H75.77Zm30.67-1a1.5,1.5,0,0,1,1.42-1,1.52,1.52,0,1,1-1.42,2,1.45,1.45,0,0,1-.1-.51A1.71,1.71,0,0,1,174.66,266Z" style="fill:#c5c9e0"/><path d="M145.17,139.86h54.06a2.54,2.54,0,1,0,0-1H145.59L57.7,50.9l-.15-.15H0v1H57.13Zm55.12-1a1.5,1.5,0,0,1,1.42-1,1.52,1.52,0,1,1,0,3,1.5,1.5,0,0,1-1.42-1,1.33,1.33,0,0,1,0-1Z" style="fill:#c5c9e0"/><polygon points="81.85 422.05 0 422.05 0 423.06 81.41 423.06 90.31 432.85 91.68 432.85 82 422.21 81.85 422.05" style="fill:#c5c9e0"/><path d="M73.92,257.67a2.56,2.56,0,0,0-.42,1.4A2.53,2.53,0,1,0,76,256.54a2.48,2.48,0,0,0-1.39.42L43.49,225.79l-.15-.15H0v1H42.92Zm.74.74a1.55,1.55,0,0,1,.72-.71,1.44,1.44,0,0,1,.65-.15,1.52,1.52,0,1,1-1.52,1.52A1.6,1.6,0,0,1,74.66,258.41Z" style="fill:#c5c9e0"/><polygon points="140.45 163.49 240.84 163.49 240.84 162.48 140.87 162.48 49.46 71 0 71 0 72.02 49.04 72.02 140.45 163.49" style="fill:#c5c9e0"/><path d="M157.65,251a2.56,2.56,0,0,0-.7-1.3,2.48,2.48,0,0,0-1.78-.74h0a2.52,2.52,0,0,0-1.79.74,2.56,2.56,0,0,0-.74,1.79,2.53,2.53,0,0,0,2.53,2.53,2.54,2.54,0,0,0,2.48-2h87.12L259,237.74a2.47,2.47,0,0,0,1.57.57,2.54,2.54,0,1,0-2.54-2.54,2.38,2.38,0,0,0,.32,1.19l-14,14Zm-1.06,1a1.48,1.48,0,0,1-.35.54,1.51,1.51,0,0,1-2.59-1.07,1.48,1.48,0,0,1,.44-1.07,1.35,1.35,0,0,1,1.08-.45,1.51,1.51,0,0,1,1.07.45,1.53,1.53,0,0,1,.36.58,1.62,1.62,0,0,1,.08.49A1.6,1.6,0,0,1,156.59,252Zm104-17.74a1.52,1.52,0,0,1,0,3,1.48,1.48,0,0,1-.86-.26,1.52,1.52,0,0,1,.86-2.77Z" style="fill:#c5c9e0"/><polygon points="58 146.63 58.71 145.92 40.69 127.88 0 127.88 0 128.89 40.27 128.89 58 146.63" style="fill:#c5c9e0"/><polygon points="123.67 187.69 154.96 187.69 177.41 210.16 178.12 209.45 155.52 186.83 155.38 186.68 123.25 186.68 103.01 206.94 0 206.94 0 207.95 103.43 207.95 123.67 187.69" style="fill:#c5c9e0"/><path d="M83.16,4.64a2.45,2.45,0,0,0,1.39.42,2.53,2.53,0,0,0,0-5.06,2.5,2.5,0,0,0-2,1A2.54,2.54,0,0,0,82,2.53a2.48,2.48,0,0,0,.42,1.4L58.58,27.8H0v1H59ZM84.55,1a1.52,1.52,0,0,1,0,3,1.55,1.55,0,0,1-.65-.15,1.48,1.48,0,0,1-.72-.72A1.55,1.55,0,0,1,83,2.53,1.52,1.52,0,0,1,84.55,1Z" style="fill:#c5c9e0"/><path d="M66.24,275.6h40.22l22-22a2.54,2.54,0,0,0,1.42.44h0a2.55,2.55,0,0,0,2.48-2.58h0a2.53,2.53,0,0,0-2.53-2.53h0a2.54,2.54,0,0,0-2.54,2.52v.11a2.63,2.63,0,0,0,.41,1.31L106,274.59H66.66l-32-32.06H0v1H34.2ZM129.87,250h0a1.51,1.51,0,0,1,1.07.45,1.46,1.46,0,0,1,.44,1.07h0A1.52,1.52,0,0,1,129.9,253h0a1.52,1.52,0,0,1-.68-.17,1.57,1.57,0,0,1-.7-.74,1.77,1.77,0,0,1-.14-.66A1.52,1.52,0,0,1,129.87,250Z" style="fill:#c5c9e0"/><path d="M90.1,162.89H42.21L25.66,146.33l-.72.71L41.79,163.9H90.27a2.53,2.53,0,1,0-.17-1Zm4,.09a1.51,1.51,0,0,1-2.72.92,1.54,1.54,0,0,1-.31-.92.28.28,0,0,1,0-.09,1.51,1.51,0,0,1,3,.09Z" style="fill:#c5c9e0"/><path d="M155.16,207.75a2.53,2.53,0,0,0,0,5.06,2.45,2.45,0,0,0,1.05-.23l20.65,20.66h22.43a2.53,2.53,0,1,0-.08-1H177.28L157,212a2.5,2.5,0,0,0,.66-1.69A2.53,2.53,0,0,0,155.16,207.75Zm1.16,3.51a1.53,1.53,0,0,1-.91.52l-.25,0a1.52,1.52,0,1,1,1.52-1.52A1.55,1.55,0,0,1,156.32,211.26Zm43.91,21a1.54,1.54,0,1,1,.15,1,1.41,1.41,0,0,1-.19-.7A1.55,1.55,0,0,1,200.23,232.23Z" style="fill:#c5c9e0"/><path d="M210.72,363.68a2.5,2.5,0,0,0,1.79.74,2.53,2.53,0,1,0-2.47-3H117.68L73.33,405.77H0v1H73.74L118.1,362.4H210A2.6,2.6,0,0,0,210.72,363.68Zm.37-2.3a1.52,1.52,0,1,1,1.42,2,1.47,1.47,0,0,1-1.07-.45,1.43,1.43,0,0,1-.35-.56,1.31,1.31,0,0,1-.09-.51A1.44,1.44,0,0,1,211.09,361.38Z" style="fill:#c5c9e0"/><path d="M1240.41,175.14a2.54,2.54,0,1,0,.13,1H1292l75.35-75.4a2.53,2.53,0,0,0,3.93-2.11,2.53,2.53,0,1,0-5.06,0,2.48,2.48,0,0,0,.42,1.39l-75.06,75.11Zm-1,1.39a1.52,1.52,0,1,1,0-1,1.44,1.44,0,0,1,.09.51A1.43,1.43,0,0,1,1239.45,176.53Zm129.27-79.41a1.52,1.52,0,0,1,0,3,1.39,1.39,0,0,1-.65-.16,1.5,1.5,0,0,1-.72-.71,1.59,1.59,0,0,1-.15-.65A1.52,1.52,0,0,1,1368.72,97.12Z" style="fill:#c5c9e0"/><path d="M1439.55,127.32h-75.77l-68.22,68.27H1266a2.54,2.54,0,1,0,0,1h30l68.22-68.27h75.35ZM1264.9,196.6a1.52,1.52,0,1,1,0-1,1.44,1.44,0,0,1,.09.51A1.43,1.43,0,0,1,1264.9,196.6Z" style="fill:#c5c9e0"/><path d="M1294,322.76h-53.51a2.52,2.52,0,1,0-.09,1h53.18l87.89,88,.15.14h57.55v-1h-57.13Zm-54.69,1a1.66,1.66,0,0,1-.25.34,1.54,1.54,0,0,1-1.07.44,1.52,1.52,0,1,1,1.49-1.8,2.64,2.64,0,0,1,0,.28A1.6,1.6,0,0,1,1239.35,323.78Z" style="fill:#c5c9e0"/><polygon points="1390.52 390.23 1299.26 298.9 1299.11 298.75 1198.51 298.75 1151.64 345.65 1152.36 346.37 1198.93 299.76 1298.69 299.76 1390.1 391.24 1439.56 391.24 1439.56 390.23 1390.52 390.23" style="fill:#c5c9e0"/><polygon points="1439.55 334.68 1439.55 333.66 1399.29 333.66 1381.56 315.92 1380.84 316.64 1398.87 334.68 1439.55 334.68" style="fill:#c5c9e0"/><polygon points="1439.55 254.13 1336.12 254.13 1315.89 274.38 1284.6 274.38 1262.15 251.91 1261.43 252.63 1284.03 275.24 1284.18 275.39 1316.31 275.39 1336.54 255.14 1439.55 255.14 1439.55 254.13" style="fill:#c5c9e0"/><path d="M1414.23,316.63l.72-.71-16.7-16.71-.15-.15h-48.7a2.53,2.53,0,0,0-5,.51,2.53,2.53,0,0,0,5,.51h48.28Zm-65.88-16.55a1.52,1.52,0,1,1-1.42-2,1.51,1.51,0,0,1,1.07.45,1.43,1.43,0,0,1,.35.56,1.52,1.52,0,0,1,.09.51A1.44,1.44,0,0,1,1348.35,300.08Z" style="fill:#c5c9e0"/><path d="M1010.61,327.08a2.53,2.53,0,0,0-2.48-2.07h-.06a2.54,2.54,0,0,0-1.77.78,2.48,2.48,0,0,0-.7,1.8h0a2.52,2.52,0,0,0,2.52,2.52h0a2.54,2.54,0,0,0,2.48-2H1117l26.4-26.41a2.52,2.52,0,0,0,1.39.42h0a2.53,2.53,0,0,0,2.53-2.53,2.53,2.53,0,1,0-4.64,1.4l-26.1,26.11Zm-1.06,1a1.48,1.48,0,0,1-1.43,1,1.52,1.52,0,0,1-1.51-1.51v0a1.5,1.5,0,0,1,.42-1.08,1.53,1.53,0,0,1,1.06-.47h0a1.49,1.49,0,0,1,1.42,1.06,1.65,1.65,0,0,1,.1.5A1.45,1.45,0,0,1,1009.55,328.09Zm135.19-30a1.52,1.52,0,0,1,1.52,1.52,1.49,1.49,0,0,1-.45,1.07,1.47,1.47,0,0,1-1.07.45h0a1.59,1.59,0,0,1-.65-.15,1.54,1.54,0,0,1-.42-.3,1.4,1.4,0,0,1-.3-.42,1.59,1.59,0,0,1-.15-.65A1.52,1.52,0,0,1,1144.74,298.05Z" style="fill:#c5c9e0"/><polygon points="1439.55 23.85 1439.55 22.84 1365.27 22.84 1353.64 11.2 1352.93 11.92 1364.85 23.85 1439.55 23.85" style="fill:#c5c9e0"/><path d="M1439.55,235.9h-42.92l-31-31a2.45,2.45,0,0,0,.42-1.39,2.53,2.53,0,0,0-2.53-2.53h0a2.53,2.53,0,1,0,0,5.06h0a2.53,2.53,0,0,0,1.4-.42l31.29,31.31h43.34Zm-74.66-31.76a1.5,1.5,0,0,1-.29.42,1.36,1.36,0,0,1-.43.29,1.45,1.45,0,0,1-.65.16h0a1.53,1.53,0,0,1-1.52-1.52,1.51,1.51,0,0,1,.45-1.08,1.54,1.54,0,0,1,1.07-.44h0a1.5,1.5,0,0,1,1.52,1.52A1.44,1.44,0,0,1,1364.89,204.14Z" style="fill:#c5c9e0"/><path d="M1439.55,219h-34.19l-31.9-31.92-.15-.15h-40.22l-22,22a2.53,2.53,0,0,0-3.92,2.11,2.53,2.53,0,1,0,5.06,0,2.56,2.56,0,0,0-.42-1.39L1333.51,188h39.38l32,32.07h34.61Zm-129.86-6.42a1.52,1.52,0,1,1,0-3,1.59,1.59,0,0,1,.65.15,1.55,1.55,0,0,1,.71.72,1.45,1.45,0,0,1,.16.65A1.52,1.52,0,0,1,1309.69,212.6Z" style="fill:#c5c9e0"/><path d="M1172.4,302.1a2.53,2.53,0,0,0,2.52-2.52,2.48,2.48,0,0,0-.73-1.8,2.53,2.53,0,0,0-4.32,1.79,2.56,2.56,0,0,0,.42,1.39l-44.9,44.94h-95.56a2.57,2.57,0,0,0-2.53-2.07,2.54,2.54,0,0,0-2.48,2.57h0a2.53,2.53,0,0,0,2.53,2.53h0a2.52,2.52,0,0,0,2.48-2h96l45.2-45.23A2.56,2.56,0,0,0,1172.4,302.1Zm-143.62,44.81a1.52,1.52,0,0,1-1.43,1,1.54,1.54,0,0,1-1.07-.44,1.5,1.5,0,0,1-.44-1.08h0a1.51,1.51,0,0,1,1.48-1.55h0a1.5,1.5,0,0,1,1.43,1.06,1.64,1.64,0,0,1,.09.5A1.44,1.44,0,0,1,1028.78,346.91Zm143.62-48.86a1.52,1.52,0,0,1,0,3,1.59,1.59,0,0,1-.65-.15,1.57,1.57,0,0,1-.72-.72,1.59,1.59,0,0,1-.15-.65A1.52,1.52,0,0,1,1172.4,298.05Z" style="fill:#c5c9e0"/><path d="M988.14,307.85h0a2.55,2.55,0,0,0,2.48-2h121.88l30.41-30.44h92.44a2.53,2.53,0,0,0,5-.5v-.11a2.53,2.53,0,0,0-2.53-2.47h-.06a2.54,2.54,0,0,0-2.43,2.07H1142.5l-30.41,30.44H990.63a2.56,2.56,0,0,0-2.54-2.07,2.52,2.52,0,0,0-2.47,2.57h0A2.54,2.54,0,0,0,988.14,307.85Zm248.18-33a1.64,1.64,0,0,1,.08-.5,1.52,1.52,0,0,1,1.4-1.06h0a1.54,1.54,0,0,1,1.52,1.57,1.52,1.52,0,0,1-2.95.5,1.7,1.7,0,0,1-.09-.5ZM986.63,305.31a1.52,1.52,0,0,1,1.48-1.55h0a1.5,1.5,0,0,1,1.43,1.06,1.93,1.93,0,0,1,.09.5,1.63,1.63,0,0,1-.45,1.07,1.5,1.5,0,0,1-1.07.44h0a1.52,1.52,0,0,1-1.52-1.51Z" style="fill:#c5c9e0"/><path d="M1284.39,254.8a2.53,2.53,0,0,0,0-5.06,2.56,2.56,0,0,0-1.4.42l-20.63-20.65h-22a2.56,2.56,0,0,0-2.54-2.07,2.52,2.52,0,0,0-2.47,2.57h0a2.53,2.53,0,0,0,5,.51h21.62l20.34,20.36a2.45,2.45,0,0,0-.42,1.39A2.53,2.53,0,0,0,1284.39,254.8Zm-1.37-3.18a1.75,1.75,0,0,1,.29-.42,1.57,1.57,0,0,1,1.08-.45,1.52,1.52,0,1,1-1.52,1.52A1.59,1.59,0,0,1,1283,251.62Zm-43.76-21.1a1.52,1.52,0,0,1-2.5.57,1.55,1.55,0,0,1-.44-1.08h0a1.52,1.52,0,0,1,1.48-1.55h0a1.51,1.51,0,0,1,1.43,1.06,2,2,0,0,1,.09.5A1.45,1.45,0,0,1,1239.26,230.52Z" style="fill:#c5c9e0"/><path d="M1227,118.81a2.52,2.52,0,0,0,2.48-2h98.42L1372.3,72.4h67.25v-1h-67.67l-44.36,44.39h-98a2.53,2.53,0,0,0-5,.5h0A2.53,2.53,0,0,0,1227,118.81Zm0-4a1.53,1.53,0,0,1,1.43,1,1.39,1.39,0,0,1,.09.5,1.44,1.44,0,0,1-.09.51,1.52,1.52,0,1,1-1.43-2Z" style="fill:#c5c9e0"/><path d="M1227,103.19a2.52,2.52,0,0,0,2.48-2h92.35l44.36-44.39h73.32v-1h-73.74l-44.36,44.39h-91.93a2.53,2.53,0,1,0-2.48,3Zm0-4a1.53,1.53,0,0,1,1.43,1,1.39,1.39,0,0,1,.09.5,1.44,1.44,0,0,1-.09.51,1.52,1.52,0,1,1-1.43-2Z" style="fill:#c5c9e0"/><path d="M1323.86,5.06a2.54,2.54,0,0,0,1.28-.36l32.56,35.8h81.85v-1h-81.4L1325.89,4a2.5,2.5,0,0,0,.5-1.49,2.54,2.54,0,1,0-2.53,2.53Zm0-4h0a1.52,1.52,0,0,1,1.51,1.52,1.6,1.6,0,0,1-.18.72,1.55,1.55,0,0,1-.75.68,1.43,1.43,0,0,1-.58.12,1.52,1.52,0,0,1,0-3Z" style="fill:#c5c9e0"/><path d="M1179,229.31a2.53,2.53,0,0,0,2.11-3.93l13.78-13.79h87a2.54,2.54,0,1,0,0-1h-87.46l-14.08,14.09a2.48,2.48,0,0,0-1.39-.42,2.53,2.53,0,1,0,0,5.06Zm104-18.73a1.52,1.52,0,1,1,0,1,1.71,1.71,0,0,1-.09-.51A1.59,1.59,0,0,1,1283,210.58Zm-104,14.68a1.59,1.59,0,0,1,.65.15,1.5,1.5,0,0,1,.71.72,1.39,1.39,0,0,1,.16.65,1.52,1.52,0,1,1-1.52-1.52Z" style="fill:#c5c9e0"/><polygon points="394.11 383.58 357.24 383.58 357.24 384.59 393.69 384.59 422.94 413.86 539.71 413.86 539.71 412.85 423.37 412.85 394.11 383.58" style="fill:#c5c9e0"/><path d="M320.43,365.86l-28,28,.72.71,27.7-27.71h51.08l20.58-20.6a2.48,2.48,0,0,0,1.4.42,2.53,2.53,0,1,0-2.53-2.53,2.48,2.48,0,0,0,.42,1.4l-20.29,20.3Zm73.47-23.22a1.53,1.53,0,0,1,1.52,1.53,1.52,1.52,0,0,1-1.52,1.51,1.37,1.37,0,0,1-.64-.15,1.5,1.5,0,0,1-.72-.71,1.45,1.45,0,0,1-.15-.66A1.52,1.52,0,0,1,393.9,342.64Z" style="fill:#c5c9e0"/><polygon points="673.66 369.27 644.59 398.36 645.3 399.08 674.08 370.29 751.33 370.29 813.85 432.85 815.28 432.85 751.75 369.27 673.66 369.27" style="fill:#c5c9e0"/><path d="M425.47,427.86a2.54,2.54,0,1,0,0,1h51.28l4,4h1.43l-5-5Zm-1.06,1a1.5,1.5,0,0,1-1.42,1,1.52,1.52,0,0,1,0-3,1.49,1.49,0,0,1,1.42,1,1.45,1.45,0,0,1,.1.51A1.35,1.35,0,0,1,424.41,428.87Z" style="fill:#c5c9e0"/><path d="M1112.94,363a2.52,2.52,0,0,0-2.43,2.07h-92.39l-57,57h-128v1H961.56l57-57h92a2.53,2.53,0,0,0,5-.49v-.12A2.54,2.54,0,0,0,1112.94,363Zm0,4.09a1.54,1.54,0,0,1-1.07-.44,1.47,1.47,0,0,1-.35-.57,1.44,1.44,0,0,1-.09-.51h0a1.35,1.35,0,0,1,.07-.49,1.43,1.43,0,0,1,.35-.59A1.47,1.47,0,0,1,1113,364h0a1.54,1.54,0,0,1,0,3.08Z" style="fill:#c5c9e0"/><path d="M660.17,336.2a2.56,2.56,0,0,0,1.39-.42l16.12,16.13h54.51a2.55,2.55,0,1,0,0-1H678.1l-15.83-15.84a2.44,2.44,0,0,0,.42-1.38,2.53,2.53,0,1,0-2.52,2.52Zm73.08,14.7a1.5,1.5,0,0,1,1.42-1,1.52,1.52,0,0,1,1.52,1.52,1.54,1.54,0,0,1-1.52,1.52,1.51,1.51,0,0,1-1.07-.45,1.47,1.47,0,0,1-.35-.57,1.43,1.43,0,0,1-.09-.5A1.44,1.44,0,0,1,733.25,350.9Zm-73.08-18.75a1.51,1.51,0,0,1,1.07.45,1.53,1.53,0,0,1-.42,2.44,1.59,1.59,0,0,1-.65.15,1.52,1.52,0,0,1,0-3Z" style="fill:#c5c9e0"/><path d="M677.82,390.91a2.53,2.53,0,0,0-2.53,2.53,2.56,2.56,0,0,0,.45,1.44l-20.88,20.89H576.79l-22-22H477v1h77.38l22,22h78.91l21.19-21.21a2.49,2.49,0,0,0,1.35.4,2.54,2.54,0,0,0,1.79-4.32A2.5,2.5,0,0,0,677.82,390.91Zm0,4a1.55,1.55,0,0,1-.61-.13,1.57,1.57,0,0,1-.73-.69,1.51,1.51,0,0,1,2.41-1.77,1.5,1.5,0,0,1,.44,1.07A1.52,1.52,0,0,1,677.82,395Z" style="fill:#c5c9e0"/><path d="M508.58,428.37a2.53,2.53,0,1,0-2.53,2.53,2.46,2.46,0,0,0,1.39-.43l2.38,2.38h1.43l-3.09-3.09A2.53,2.53,0,0,0,508.58,428.37Zm-1.17.65a1.53,1.53,0,0,1-.71.71,1.45,1.45,0,0,1-.65.16,1.52,1.52,0,0,1,0-3,1.5,1.5,0,0,1,1.51,1.52A1.44,1.44,0,0,1,507.41,429Z" style="fill:#c5c9e0"/><path d="M453.38,396.78h0a2.54,2.54,0,0,0,2.53-2.52v-.1a2.47,2.47,0,0,0-.61-1.57l17.77-17.77h66.83l22.33-22.34a2.56,2.56,0,0,0,1.39.42,2.53,2.53,0,1,0-2.53-2.53,2.56,2.56,0,0,0,.42,1.39l-22,22H472.66L454.51,392a2.7,2.7,0,0,0-1.18-.28,2.53,2.53,0,0,0-2.47,2.58h0A2.54,2.54,0,0,0,453.38,396.78Zm110.25-47.93a1.52,1.52,0,0,1,0,3,1.59,1.59,0,0,1-.65-.15,1.57,1.57,0,0,1-.72-.72,1.59,1.59,0,0,1-.15-.65A1.52,1.52,0,0,1,563.63,348.85Zm-111.76,45.4a1.53,1.53,0,0,1,1.48-1.56h0a1.27,1.27,0,0,1,.34.05,1.45,1.45,0,0,1,.86.57,1.67,1.67,0,0,1,.32.95,1.53,1.53,0,0,1-1.52,1.51h0a1.52,1.52,0,0,1-1.51-1.51Z" style="fill:#c5c9e0"/><path d="M325.48,381.55h0a2.53,2.53,0,0,0-2.52,2.53,2.51,2.51,0,0,0,.42,1.39l-24,24.07h-55l-31.61-31.63H122.78v1H212.3l31.61,31.63h55.84l24.34-24.36a2.52,2.52,0,0,0,1.38.42h0a2.52,2.52,0,0,0,1.79-.74,2.55,2.55,0,0,0,.74-1.8,2.53,2.53,0,0,0-2.53-2.52Zm1.07,3.6a1.47,1.47,0,0,1-1.07.45h0a1.59,1.59,0,0,1-.65-.15,1.55,1.55,0,0,1-.71-.72,1.42,1.42,0,0,1-.16-.65,1.52,1.52,0,0,1,1.52-1.52h0a1.5,1.5,0,0,1,1.07.44,1.51,1.51,0,0,1,.45,1.08A1.47,1.47,0,0,1,326.55,385.15Z" style="fill:#c5c9e0"/></svg>